<?xml version="1.0" encoding="utf-8"?>
<!-- Generator: Adobe Illustrator 26.1.0, SVG Export Plug-In . SVG Version: 6.00 Build 0)  -->
<svg version="1.1" id="Layer_1" xmlns="http://www.w3.org/2000/svg" xmlns:xlink="http://www.w3.org/1999/xlink" x="0px" y="0px"
	 viewBox="0 0 278.6 53.7" style="enable-background:new 0 0 278.6 53.7;" xml:space="preserve">
<style type="text/css">
	.st0{fill:none;stroke:#CCCCCC;stroke-width:2.4944;stroke-miterlimit:6.2361;}
	.st1{fill:#CCCCCC;}
</style>
<g>
	<path class="st0" d="M30.9,2.5l14.4,25.1l14.4,24.9H2.2l14.4-25.1L30.9,2.5z M5,47.7h46L27.7,8.2 M8.1,42H41L24.5,13.8 M11.5,36.3
		h19.8l-10-17 M14.7,30.6h6.5l-3.2-5.5"/>
	<g transform="translate(91.73500061035156,106.29999923706055)">
		<g>
			<g transform="scale(1)">
				<g>
					<path class="st1" d="M-0.2-92.7l0.1,6.6h-3.6c-1.5,0-3,0.3-4.4,0.7s-2.7,1.2-3.8,2.2c-1.1,1-2,2.1-2.7,3.5c-0.7,1.4-1,3-1,4.7
						l0,0v20.5h-6.7v-36.9h6.6v3.8c0.5-1.1,1.2-2,2.1-2.7c0.9-0.7,2-1.2,3.1-1.6s2.3-0.6,3.4-0.7c1.1-0.1,2.2-0.2,3-0.2l0,0
						C-4-92.7-0.2-92.7-0.2-92.7z M35.8-70.4l-4.6,0.7c0,1.9,0,3.7,0,5.5c0,1.8,0,3.4,0,4.8c0,1.4,0,2.5,0,3.4s0,1.3,0,1.3l0,0h-6.7
						v-3.9c-1.4,1.7-3.1,3-5.1,3.7c-2,0.7-4,1.1-6.2,1.1l0,0c-1.7,0-3.4-0.3-5.1-0.8s-3.3-1.3-4.6-2.3c-1.3-1-2.5-2.3-3.3-3.9
						c-0.8-1.5-1.3-3.4-1.3-5.4l0,0c0-2.1,0.3-3.9,1-5.4c0.7-1.5,1.7-2.7,3-3.7c1.3-1,2.7-1.7,4.4-2.1c1.7-0.4,3.6-0.7,5.6-0.7l0,0
						c1.8,0,3.7,0.1,5.6,0.4c2,0.3,4,0.8,6,1.4l0,0v-0.3c0.1-0.4,0.1-0.7,0.1-1s0-0.6,0-1l0,0c0-1.3-0.3-2.5-0.8-3.5
						c-0.5-1-1.2-1.8-2-2.4c-0.8-0.7-1.8-1.1-2.8-1.4c-1-0.3-2.1-0.5-3.3-0.5l0,0c-1.1,0-2.1,0.1-3.2,0.3c-1,0.3-2,0.7-2.8,1.2
						c-0.8,0.5-1.5,1.2-2,2C7.2-82,6.8-81,6.8-79.9l0,0H0.1c0.1-2.2,0.7-4,1.6-5.7c0.9-1.6,2-3,3.5-4c1.4-1,3-1.9,4.7-2.4
						c1.8-0.5,3.6-0.8,5.4-0.8l0,0c2.2,0,4.2,0.3,6.1,0.9c1.9,0.6,3.6,1.5,5,2.8c1.4,1.3,2.6,2.9,3.4,4.9c0.9,2,1.3,4.4,1.3,7.3l0,0
						v0.3c0.7-0.1,1.5-0.2,2.3-0.3c0.7-0.1,1.6-0.3,2.4-0.5l0,0L35.8-70.4C35.9-70.4,35.8-70.4,35.8-70.4z M24.5-67v-2.6
						c-0.3,0-0.8-0.1-1.6-0.3c-0.7-0.2-1.7-0.4-2.7-0.6c-1-0.2-2.1-0.4-3.2-0.6c-1.1-0.3-2.3-0.4-3.3-0.4l0,0
						c-0.8,0-1.7,0.1-2.7,0.3s-1.8,0.5-2.7,0.9c-0.8,0.4-1.5,1-2,1.7S5.6-67,5.6-66l0,0c0,0.8,0.2,1.6,0.7,2.3s1.1,1.3,1.9,1.8
						c0.8,0.5,1.7,0.9,2.7,1.2c1,0.3,2.1,0.4,3.3,0.4l0,0c1.4,0,2.7-0.2,3.9-0.7c1.2-0.5,2.3-1,3.3-1.7s1.7-1.4,2.3-2.2
						C24.2-65.6,24.5-66.4,24.5-67L24.5-67z M73.7-91.4L58.5-54.6h-6.9l15.2-36.7L73.7-91.4L73.7-91.4z M43.4-91.4l15.2,36.7h-7
						L36.4-91.4H43.4z M86-100.9v46.3h-6.4v-46.3H86z M101.6-91.4v36.7h-6.4v-36.7L101.6-91.4L101.6-91.4z M98.4-96.8L98.4-96.8
						c-1,0-1.8-0.3-2.5-1s-1-1.5-1-2.5l0,0c0-1,0.3-1.8,1-2.5c0.7-0.7,1.6-1,2.5-1l0,0c1,0,1.9,0.3,2.6,1c0.7,0.7,1.1,1.5,1.1,2.5
						l0,0c0,1-0.3,1.8-1.1,2.5C100.3-97.2,99.5-96.8,98.4-96.8z M138.4-66.9h7.3c-0.7,1.9-1.6,3.7-2.8,5.3c-1.2,1.6-2.6,3-4.2,4.1
						c-1.6,1.2-3.4,2-5.4,2.7c-1.9,0.7-3.9,1-6,1l0,0c-2.6,0-5-0.5-7.4-1.5c-2.3-1-4.4-2.3-6.1-4.1c-1.8-1.7-3.2-3.7-4.2-6.1
						c-1-2.3-1.6-4.9-1.6-7.5l0,0c0-2.6,0.5-5,1.6-7.4c1-2.3,2.4-4.4,4.2-6.2c1.8-1.8,3.8-3.2,6.2-4.3c2.3-1,4.9-1.6,7.6-1.6l0,0
						c2.1,0,4.1,0.3,6,1c2,0.7,3.7,1.6,5.3,2.7c1.6,1.2,3,2.6,4.2,4.2c1.2,1.7,2.2,3.4,3,5.4l0,0h-7.4c-1.1-2-2.6-3.7-4.6-4.9
						c-2-1.2-4.1-1.8-6.5-1.8l0,0c-1.7,0-3.3,0.3-4.8,1c-1.5,0.7-2.9,1.6-4.1,2.7c-1.2,1.1-2.1,2.5-2.8,4c-0.7,1.6-1,3.2-1,5l0,0
						c0,1.6,0.3,3.2,1,4.7s1.5,2.9,2.7,4c1.1,1.1,2.5,2.1,4,2.7c1.5,0.7,3.1,1,4.9,1l0,0c2.2,0,4.4-0.6,6.4-1.7
						C135.6-63.4,137.2-64.9,138.4-66.9L138.4-66.9z M167.4-53.8L167.4-53.8c-2.7,0-5.2-0.5-7.6-1.5c-2.3-1-4.4-2.4-6.2-4.2
						c-1.8-1.8-3.2-3.8-4.2-6.2c-1-2.3-1.5-4.9-1.5-7.5l0,0c0-2.7,0.5-5.2,1.5-7.6c1-2.3,2.4-4.4,4.2-6.2c1.8-1.8,3.9-3.2,6.2-4.2
						c2.4-1,4.9-1.5,7.6-1.5l0,0c2.7,0,5.2,0.5,7.5,1.5c2.4,1,4.4,2.4,6.2,4.2c1.8,1.8,3.2,3.8,4.2,6.2c1,2.3,1.5,4.9,1.5,7.6l0,0
						c0,2.7-0.5,5.1-1.5,7.5c-1,2.3-2.4,4.4-4.2,6.2s-3.8,3.2-6.2,4.2C172.6-54.4,170.1-53.8,167.4-53.8z M167.4-85.8L167.4-85.8
						c-1.7,0-3.4,0.3-5,1c-1.6,0.7-2.9,1.6-4.1,2.7c-1.1,1.1-2.1,2.4-2.7,4c-0.7,1.5-1,3.2-1,4.9l0,0c0,1.8,0.3,3.4,1,4.9
						s1.6,2.9,2.7,4c1.1,1.1,2.5,2,4.1,2.7c1.6,0.7,3.3,1,5,1l0,0c1.8,0,3.4-0.3,5-1c1.5-0.7,2.9-1.6,4-2.7c1.1-1.2,2-2.5,2.7-4
						c0.7-1.5,1-3.2,1-4.9l0,0c0-1.7-0.3-3.4-1-4.9s-1.6-2.8-2.7-4c-1.1-1.1-2.5-2-4-2.7C170.9-85.5,169.2-85.8,167.4-85.8z"/>
				</g>
			</g>
		</g>
	</g>
</g>
</svg>
