<?xml version="1.0" encoding="utf-8"?>
<!-- Generator: Adobe Illustrator 26.1.0, SVG Export Plug-In . SVG Version: 6.00 Build 0)  -->
<svg version="1.1" id="Layer_1" xmlns="http://www.w3.org/2000/svg" xmlns:xlink="http://www.w3.org/1999/xlink" x="0px" y="0px"
	 viewBox="0 0 103.9 104" style="enable-background:new 0 0 103.9 104;" xml:space="preserve">
<style type="text/css">
	.st0{fill:#FFFFFF;}
</style>
<path class="st0" d="M46.8,74.1c-3.9,8.5-6,16.9-8.5,25c-1.1,3.7-2.9,5-6.7,4.9c-9.1-0.2-18.3,0-27.4-0.1c-4.6,0-4.9-0.5-3.6-4.6
	c5-15.3,10-30.5,15-45.8c1.4-4.3,1.1-4.9-3.6-5h-7c-2.2,0-2.9-1-2.2-3.1C7.3,31.3,11.8,17.1,16.2,3c0.8-2.5,2.4-3,4.6-3
	c6,0.1,12,0.1,18,0c3.3-0.1,4.2,1,2.8,4.1c-4,8.8-8,17.6-11.9,26.4c-1.9,4.3-1.6,4.6,3,4.7c9.3,0.2,9.3,0.2,5.9,8.7
	c-4.1,10.2-8.2,20.5-12.4,30.7c-0.7,1.5-1,3.2-1,4.8c5.7-7.6,11.4-15.1,17-22.7c6.6-8.8,13.2-17.7,19.7-26.5
	c0.6-0.8,1.9-1.6,1.3-2.8s-2-0.7-3-0.7c-2.3,0.1-4.6,0.3-6.9,0.4c-2,0-2.9-0.8-1.6-2.7c4.8-7,9.5-13.9,14.3-20.9
	c1.2-1.7,3-1.7,4.8-1.6c12.6,0.6,25,10.6,29.2,23.5s0.3,25.3-10.4,33.9c-2.1,1.7-4.2,3.5-6.8,4.6c-3,1.2-3,2.8-1.3,5.3
	c6.9,9.9,13.8,19.9,20.6,29.9c0.8,1.2,2.3,2.4,1.6,3.9s-2.6,1.1-4.1,1.1c-9.4,0-18.8,0-28.2,0.1c-2.6,0.2-5.1-1.1-6.4-3.4
	C59.2,91.9,53.2,83.3,46.8,74.1L46.8,74.1z"/>
</svg>
