<?xml version="1.0" encoding="utf-8"?>
<!-- Generator: Adobe Illustrator 26.1.0, SVG Export Plug-In . SVG Version: 6.00 Build 0)  -->
<svg version="1.1" id="Layer_1" xmlns="http://www.w3.org/2000/svg" xmlns:xlink="http://www.w3.org/1999/xlink" x="0px" y="0px"
	 viewBox="0 0 739.5 155.9" style="enable-background:new 0 0 739.5 155.9;" xml:space="preserve">
<style type="text/css">
	.st0{fill:#1D1D1B;}
</style>
<g>
	<g>
		<path class="st0" d="M170.5,73.4c5.5-8.2,12.2-14.4,19.9-18.8s16-6.6,24.6-6.6c7.4,0,13.6,1.5,18.6,4.5c5,3,8.6,7,10.9,11.8
			l2.6-14.8h32.2l-18.6,104.9h-32.1l2.8-14.9c-4,4.9-9.1,8.8-15.2,11.8c-6.1,3-12.9,4.5-20.3,4.5c-7.4,0-13.9-1.7-19.6-5.1
			c-5.7-3.4-10.1-8.2-13.2-14.4c-3.1-6.2-4.7-13.5-4.7-21.9c0-4,0.4-8.3,1.1-12.8C161.2,91,164.9,81.5,170.5,73.4z M238.5,95.7
			c0-6.1-1.8-11-5.4-14.5S225,76,219.5,76c-6.4,0-12.2,2.3-17.5,6.9c-5.3,4.6-8.6,10.9-10,18.9c-0.4,2.3-0.6,4.3-0.6,6.2
			c0,6.1,1.8,11,5.4,14.6s8.1,5.4,13.4,5.4c6.4,0,12.2-2.3,17.5-7s8.6-11,10.1-19C238.3,99.7,238.5,97.6,238.5,95.7z"/>
		<path class="st0" d="M336.5,124.3l36.1-74.8H407l-55.8,104.9h-39.9L292.7,49.5h34.2L336.5,124.3z"/>
		<path class="st0" d="M458.5,15.3l-24.6,139.1h-32.1l24.6-139.1C426.3,15.3,458.5,15.3,458.5,15.3z"/>
		<path class="st0" d="M507.7,49.5l-18.4,104.9h-32.1l18.4-104.9C475.6,49.5,507.7,49.5,507.7,49.5z M481.9,34.5
			c-3-2.7-4.4-6.1-4.4-10.2c0-5.6,2.2-10.5,6.6-14.5c4.4-4,9.7-6,16-6c5,0,9,1.3,11.8,4c2.9,2.7,4.3,6.2,4.3,10.4
			c0,5.5-2.2,10.3-6.6,14.3c-4.4,4-9.6,6-15.8,6C488.8,38.6,484.8,37.2,481.9,34.5z"/>
		<path class="st0" d="M527.3,73.4c5.9-8.2,13.2-14.4,21.9-18.8s18.2-6.6,28.5-6.6c13.2,0,23.6,3.5,31.2,10.3
			c7.6,6.9,11.7,16.6,12.2,29.1h-34.2c-1.4-8-6.3-12-14.7-12c-5.9,0-11,2.3-15.2,6.9c-4.3,4.6-7.1,11.1-8.7,19.7
			c-0.5,2.6-0.8,5.4-0.8,8.3c0,5.9,1.4,10.4,4.1,13.5c2.8,3.1,6.5,4.7,11.3,4.7c8.3,0,14.5-4,18.6-12H616
			c-4.9,12.3-12.4,21.9-22.6,28.9s-21.8,10.5-34.8,10.5c-13.5,0-24.3-3.7-32.2-11.2c-8-7.5-11.9-17.6-11.9-30.6
			c0-3.9,0.4-8,1.1-12.2C517.5,91,521.4,81.5,527.3,73.4z"/>
		<path class="st0" d="M650.2,150.4c-7-3.6-12.4-8.8-16.3-15.4c-3.8-6.6-5.7-14.3-5.7-23.1c0-11.9,2.8-22.8,8.5-32.5
			c5.6-9.8,13.4-17.5,23.3-23s20.9-8.4,33.1-8.4c9,0,17.1,1.8,24.2,5.5c7.1,3.7,12.6,8.9,16.5,15.5c3.9,6.6,5.8,14.3,5.8,23.1
			c0,12-2.8,22.9-8.5,32.6c-5.7,9.7-13.5,17.3-23.5,22.8c-10,5.5-21,8.3-33.2,8.3C665.3,155.9,657.2,154.1,650.2,150.4z M693,123.5
			c4.2-3.2,7.5-7.3,9.8-12.4c2.3-5.1,3.5-10.4,3.5-15.9c0-6.3-1.7-11.1-5.1-14.5c-3.4-3.4-7.7-5.1-12.8-5.1
			c-5.4,0-10.1,1.6-14.2,4.8c-4.1,3.2-7.2,7.4-9.5,12.5c-2.3,5.1-3.4,10.5-3.4,16.2c0,6.1,1.6,10.9,4.9,14.2s7.5,5,12.6,5
			C684.1,128.2,688.8,126.6,693,123.5z"/>
	</g>
	<path class="st0" d="M69.5,110c-5.8,12.7-8.9,25-12.5,37.1c-1.7,5.5-4.4,7.4-9.9,7.3c-13.5-0.3-27.1,0-40.7-0.1
		c-6.8,0-7.3-0.7-5.3-6.9c7.4-22.7,14.8-45.3,22.3-68c2.1-6.5,1.6-7.3-5.3-7.4H7.6c-3.3,0-4.3-1.5-3.3-4.6c6.6-21,13.2-42,19.8-62.9
		C25.1,0.8,27.5,0,30.9,0c8.9,0.1,17.8,0.2,26.7,0c4.9-0.1,6.2,1.5,4.1,6.1c-5.9,13-11.8,26.1-17.6,39.2c-2.8,6.3-2.4,6.8,4.5,6.9
		c13.9,0.2,13.9,0.2,8.8,12.9C51.2,80.3,45.1,95.5,39,110.6c-1,2.2-1.6,4.7-1.6,7.1c8.4-11.2,16.9-22.5,25.2-33.7
		c9.8-13.1,19.5-26.2,29.2-39.4c0.9-1.2,2.8-2.4,1.9-4.1s-2.9-1.1-4.4-1.1C86,39.6,82.6,40,79.1,40c-3,0.1-4.4-1.2-2.4-4
		C83.8,25.6,90.9,15.3,98,5c1.8-2.5,4.4-2.5,7.1-2.3c18.7,0.9,37.1,15.8,43.3,34.8s0.5,37.6-15.5,50.3c-3.2,2.5-6.2,5.2-10,6.8
		c-4.4,1.8-4.4,4.2-1.9,7.9c10.3,14.7,20.4,29.6,30.6,44.4c1.2,1.8,3.5,3.6,2.4,5.8s-3.9,1.7-6,1.7c-14,0-27.9,0-41.9,0.1
		c-3.9,0.2-7.6-1.7-9.6-5.1C87.9,136.4,79,123.7,69.5,110L69.5,110z"/>
</g>
</svg>
