<?xml version="1.0" encoding="utf-8"?>
<!-- Generator: Adobe Illustrator 26.1.0, SVG Export Plug-In . SVG Version: 6.00 Build 0)  -->
<svg version="1.1" id="Layer_1" xmlns="http://www.w3.org/2000/svg" xmlns:xlink="http://www.w3.org/1999/xlink" x="0px" y="0px"
	 viewBox="0 0 2428.52 1076.06" style="enable-background:new 0 0 2428.52 1076.06;" xml:space="preserve">
<style type="text/css">
	.st0{fill:#EC9722;stroke:#FFFFFF;stroke-width:3;}
	.st1{fill:#FFFFFF;}
	.st2{font-family:'ArialMT';}
	.st3{font-size:18px;}
	.st4{fill:#872888;stroke:#FFFFFF;stroke-width:3;}
	.st5{fill:#ED2024;stroke:#FFFFFF;stroke-width:3;}
	.st6{fill:#9A9A9A;stroke:#FFFFFF;stroke-width:3;}
	.st7{fill:#B3B3B3;stroke:#FFFFFF;stroke-width:3;}
</style>
<g>
	<g id="iller">
		<g id="il-1">
			<polygon class="st0" points="1372.27,645.53 1350.94,752.58 1347.08,752.64 1323.67,752.93 1319.45,761.12 1286.66,824.87 
				1293.02,836.28 1289.07,846.54 1302.75,841.01 1312.65,848.93 1311.77,867.53 1311.76,867.56 1310.17,885.96 1301.18,894.69 
				1257.38,922.96 1260.83,923.26 1263.41,921.24 1272.64,921.28 1263.69,931.54 1263.47,938.27 1255.54,943.46 1247.01,939.12 
				1226.33,951.26 1171.43,919.94 1178.49,913.79 1178.5,913.79 1188.38,905.21 1191,902.93 1191.68,862.91 1176.07,861.19 
				1152.94,804.79 1154.33,803.58 1155.68,791.19 1164.67,783.26 1160,756.91 1187.59,753.18 1203.26,737.33 1253,742.19 
				1343.74,623.68 1359.33,623.51 1366.58,639.93 1369.38,640.61 			"/>
			<text transform="matrix(1 0 0 1 1214.0024 826.3787)" class="st1 st2 st3">ADN</text>
		</g>
		<g id="il-2">
			<polygon class="st0" points="1719.25,671.27 1716.96,693.97 1713.28,695.22 1674.29,738.22 1682.51,736.25 1680.77,744.27 
				1676.01,744.82 1677.77,753.28 1674.71,751.29 1665,756.77 1668.71,761.97 1644.32,766.07 1624.74,789.08 1595.99,793.26 
				1594.69,797.33 1590.3,797.7 1587.75,795.01 1586.21,802.97 1567.42,796.87 1567.42,796.86 1564.07,791.47 1512.68,786.1 
				1514.58,790.58 1490.69,770.86 1487.65,754.61 1498.02,749.89 1507.53,731.41 1585,710.26 1586.01,697.86 1601.64,681.94 
				1601.69,681.89 1608.14,670.87 1615.07,668.26 1615.07,668.26 1618.5,664.76 1621.53,665.83 1632.47,661.71 1639.01,665.9 
				1634.53,674.26 1636.91,681.35 1672.5,685.28 1689.05,671.43 1701.27,669.11 1701.02,670.77 1708.43,672.7 1714.71,666.54 			"/>
			<text transform="matrix(1 0 0 1 1586.0513 746.7401)" class="st1 st2 st3">ADY</text>
		</g>
		<g id="il-3">
			<polygon class="st0" points="769.39,538.45 705.33,628.58 687.13,614.25 576.83,709.58 575.84,727.25 567.54,730.33 
				555.73,734.74 529.23,744.62 523.75,731.2 506.75,726.26 507.98,706.29 555.25,668.51 552.99,660.76 538.43,631.51 
				506.25,628.58 518.99,625.19 536.93,580.65 590.53,521.4 590.55,521.37 603.19,501.61 606.99,495.66 615.5,499.58 614.67,507.43 
				632,517.93 662.17,495.08 674.33,505.71 711.49,485.02 728.65,514.26 762.3,514.26 762,530.26 			"/>
			<text transform="matrix(1 0 0 1 601.1933 605.3788)" class="st1 st2 st3">AFY</text>
		</g>
		<g id="il-4">
			<polygon class="st4" points="2382.62,413.26 2382.57,413.47 2369.51,462.7 2327.23,464.51 2327.5,469.66 2287.08,466.66 
				2273,479.36 2245.67,462.58 2204.58,481.28 2214.93,492.58 2210.33,509.93 2196.67,517.93 2195.68,526.93 2194.48,527.44 
				2157.5,535.44 2135.93,470.02 2132.41,410.66 2099.67,383.58 2138.78,367.65 2158.67,373.58 2242.26,349.26 2224.53,360.53 
				2237.73,365.19 2245.02,377.28 2243.65,393.26 2257.34,396.94 2261.33,390.26 2275.75,391.58 2276.49,393.04 2276.73,393.53 			
				"/>
			<text transform="matrix(1 0 0 1 2207.1333 434.5756)" class="st1 st2 st3">AĞR</text>
		</g>
		<g id="il-5">
			<polygon class="st0" points="1366,258.58 1346.75,262.33 1348.68,268.58 1323.65,285.87 1291.93,274.52 1257.59,313.19 
				1246.04,327.95 1245.92,328.1 1228.98,327.28 1224.14,322.83 1223.67,322.4 1224.5,316.52 1241.26,261.26 1195.25,242.93 
				1189.78,176.01 1206.69,178.33 1237.5,188.51 1241.32,186.46 1316,216.76 1336.99,189.3 1372.78,213.05 1360.41,219.68 
				1360.69,222.93 1373.67,231.93 			"/>
			<text transform="matrix(1 0 0 1 1265.0278 245.7923)" class="st1 st2 st3">AMS</text>
		</g>
		<g id="il-6">
			<polygon class="st0" points="1047,569.19 988.21,594.25 988.07,594.19 969.33,511.33 962.19,507.15 959.72,505.7 959.71,505.7 
				945.98,497.66 934.58,499.58 931.7,513.6 909.07,505 862.29,533.26 840.35,522.58 818,527.93 794.35,506.91 784.32,501.16 
				808,481.76 799.24,471.25 800.94,469.75 786.76,389.25 784.44,385.71 765.74,366.25 758.89,355.45 758.53,355.47 669.25,360.77 
				656.17,336 682.24,315.26 683.59,293.18 844.01,291.58 862.74,266.26 857.68,253.27 866.81,240.74 878.05,241.26 972.44,306.2 
				976.5,295.51 1020.1,308.58 1007.67,338.52 1013,356.26 982.07,373.25 968.67,426.58 999,480.58 995.66,487.58 1045.27,526.32 
				1045.75,528.83 			"/>
			<text transform="matrix(1 0 0 1 851.6035 391.0873)" class="st1 st2 st3">ANK</text>
		</g>
		<g id="il-7">
			<polygon class="st5" points="879.47,982.62 877.04,1016.64 877.04,1016.65 874.98,1027.83 724.63,912.93 723.67,908.58 
				636.17,892.91 599.97,1001.23 583.84,991.58 569.62,993.96 562.16,1003.73 560.29,1001.1 555.83,1000.62 547.89,1007.78 
				540.62,1006.5 537.13,1009.14 536.51,1013.89 517.5,1023.14 516.74,1020.87 518.12,1018.26 515.25,1016.26 508.24,1021.64 
				473.33,999.01 468,1003.26 456.18,993.44 462.33,988.76 465,967.91 477.17,960.76 481,962.39 507.78,883.58 510.71,886.53 
				514.35,886.26 580.02,820.93 598.68,824.66 603.98,833.87 651.93,830.33 655.82,824.78 657.51,822.37 657.51,822.37 
				668.17,807.15 672.41,812.58 719.89,800.33 729.23,806.19 731.02,813.58 846.34,879.58 840.91,885.93 845,898.53 853.6,899.5 			
				"/>
			<text transform="matrix(1 0 0 1 670.3193 870.9041)" class="st1 st2 st3">ANT</text>
		</g>
		<g id="il-8">
			<polygon class="st5" points="2141.47,152.46 2107.69,192.79 2106.79,192.98 2104.57,193.44 2104.45,193.46 2104.39,193.47 
				2075.33,198.18 2074.12,199.82 2071.29,200.41 2065.46,211.58 2067.67,218.06 2054.89,245.98 2049.5,257.76 2027.17,245.93 
				1991.33,262.39 1986.67,259.44 1983.99,248.76 1990.66,234.1 1986.67,226.93 1958.58,219.87 1951.35,218.06 1969.44,202.96 
				1995.26,175.76 1968.28,138.45 2008.2,102.76 2027.17,108.23 2028.38,106.76 2032.51,107.26 2034,111.23 2046.5,117.59 
				2061.01,103.46 2074.49,107.65 2078.24,105.27 2127.46,117.69 			"/>
			<text transform="matrix(1 0 0 1 2028.7036 177.5169)" class="st1 st2 st3">ART</text>
		</g>
		<g id="il-9">
			<polygon class="st5" points="411.34,747.26 409.01,753.95 400.74,755.33 392.93,768.52 370.32,773.93 376.66,808.6 
				373.14,790.01 370.65,789.33 324.06,776.65 319.08,788.91 229.41,781.33 225.99,793.26 223.48,802.49 217.16,805.76 
				216.84,808.22 213.5,810.43 212.34,813.98 201.13,815.77 199.34,814.25 197.34,814.22 194.46,810.89 196.5,793.08 192.28,792.93 
				190,773.58 196.47,776.74 193.85,770.06 171.2,762.06 173.83,755.58 199.38,750.14 203.47,722.16 210.31,722.26 234.21,713.22 
				236.56,705.33 365.82,683.54 387.21,684.29 388.08,692.19 395.92,697.68 394.92,730.33 			"/>
			<text transform="matrix(1 0 0 1 293.4585 739.5155)" class="st1 st2 st3">AYD</text>
		</g>
		<g id="il-10">
			<polygon class="st0" points="379.8,495.76 381.5,501.9 379.28,503.01 310.68,521.27 295.76,492.25 276.93,488.75 285.49,478.26 
				207.01,451.52 140.54,502.28 133.45,487.89 121.7,484.96 161.88,448.08 161.17,445.93 163.96,439.93 161.33,432.75 
				128.85,438.26 129.56,411.57 174.81,395.06 180.24,398.25 189.31,394.45 199.9,399.26 199.99,399.29 200.19,399.21 
				215.12,392.54 227.06,387.22 233.07,368.26 227.67,363.26 232.99,340.93 226.65,337.16 223.33,338.28 222.33,331.83 
				244.33,311.93 242.89,307.94 246.29,305.81 257.67,308.73 260.87,307.25 264.69,309.76 279.63,296.79 271.32,295.14 
				258.16,279.26 261.53,271.45 301.34,281.93 284.67,295.12 292.2,300.72 322.37,294.87 309.5,317.56 315.69,318.33 356.99,383.43 
				371.75,406.7 376.43,404.45 384.21,407.53 382.5,409.57 388.52,420.26 391.96,420.54 398.51,426.75 415.95,427.56 419.18,433.66 
				422.57,434.78 			"/>
			<text transform="matrix(1 0 0 1 268.8134 415.351)" class="st1 st2 st3">BAL</text>
		</g>
		<g id="il-11">
			<polygon class="st0" points="640.25,330.76 627.25,333.01 606.06,372.83 593.75,371.5 565.76,423.21 564.5,423.39 537.31,427.19 
				505.8,396.52 507.19,376.82 514.76,378.44 520,379.26 521.4,371.16 511.05,343.75 529.26,311.51 524.49,301.76 537.4,278.76 
				537.4,278.75 540,263.76 565.55,297.71 585.76,295.08 587.49,293.01 607.74,295.76 608.9,301.73 629.03,304.18 628.4,306.49 			
				"/>
			<text transform="matrix(1 0 0 1 555.0497 350.4711)" class="st1 st2 st3">BİL</text>
		</g>
		<g id="il-12">
			<polygon class="st0" points="1961.24,544.93 1970.3,578.79 1881.04,596.46 1877,614.76 1851.67,620.02 1851.62,619.06 
				1849.42,578.33 1854.67,578.6 1863.33,565.93 1851,541.58 1853.49,532.7 1853.49,532.69 1863.68,496.26 1857.41,493.93 
				1818.38,513.54 1820.24,471.91 1838.67,468.51 1840.58,465.24 1872.12,453.79 1881.33,442.39 1893.87,440.37 1893.95,439.9 
				1925.03,434.58 1966.71,468.18 1967.96,469.19 1964.6,473.18 1972.32,502.32 1974.25,509.6 1975.43,525.93 			"/>
			<text transform="matrix(1 0 0 1 1887.1372 532.1776)" class="st1 st2 st3">BNG</text>
		</g>
		<g id="il-13">
			<polygon class="st4" points="2159.25,664.51 2167.07,672.56 2165.32,706.45 2162.25,707.01 2159.01,711.77 2074.74,661.25 
				2037.57,670.78 2027.34,664.33 2014,689.93 2022.5,618 2009.91,607.25 2013.91,599.18 2056.67,599.51 2074.26,582.5 
				2068.38,561.57 2084.76,559.35 2086,550.91 2156.93,542.04 2156.32,538.6 2155.44,535.89 2157.5,535.44 2194.48,527.44 
				2194.54,527.49 2221.19,549.45 2155.74,627.98 			"/>
			<text transform="matrix(1 0 0 1 2087.4224 626.5214)" class="st1 st2 st3">BTL</text>
		</g>
		<g id="il-14">
			<polygon class="st0" points="857.68,252.27 862.74,265.26 844.01,290.58 683.59,292.18 682.24,314.26 656.17,335 655,335.93 
				640.33,330.2 628.4,306.49 631.94,297.26 624.76,289.28 636.5,264.26 655.39,256.26 655.37,252.66 721.67,247.39 722.5,242.91 
				720.82,239.76 727.13,218.72 764.16,198.63 766.46,183.9 768.94,184.04 818.95,186.75 839.01,192.17 839.4,200.73 872.45,221.04 
							"/>
			<text transform="matrix(1 0 0 1 746.0361 258.8206)" class="st1 st2 st3">BOL</text>
		</g>
		<g id="il-15">
			<polygon class="st0" points="672.41,812.58 668.17,807.15 657.51,822.37 657.51,822.37 655.82,824.78 651.93,830.33 
				603.98,833.87 598.68,824.66 580.02,820.93 514.35,886.26 510.71,886.53 507.78,883.58 492.49,868.26 473.7,882.56 
				496.33,796.08 490.5,791.93 491.37,773.12 508.27,760.4 510.79,758.51 510.8,758.5 529.23,744.62 555.73,734.74 567.54,730.33 
				595.02,731.68 656.73,798.19 664.59,799.33 			"/>
			<text transform="matrix(1 0 0 1 532.2827 800.3377)" class="st1 st2 st3">BUR</text>
		</g>
		<g id="il-16">
			<polygon class="st0" points="540,263.76 537.4,278.75 537.4,278.76 524.49,301.76 529.26,311.51 511.05,343.75 521.4,371.16 
				520,379.26 514.76,378.44 507.19,376.82 493.75,380.76 476.5,373.57 447.81,437.75 441.25,435.76 434.75,438.77 422.57,434.78 
				419.18,433.66 415.95,427.56 398.51,426.75 391.96,420.54 388.52,420.26 382.5,409.57 384.21,407.53 376.43,404.45 371.75,406.7 
				356.99,383.43 315.69,318.33 309.5,317.56 322.37,294.87 430.18,299.73 434.33,290.41 441.83,287.93 428.17,279.58 
				419.83,283.43 394.83,270.41 407.51,263.58 412.99,260.62 420.75,264.75 424.66,264.77 424.67,264.77 466.97,264.93 
				476.82,264.77 476.97,264.77 501.21,264.37 501.23,264.37 			"/>
			<text transform="matrix(1 0 0 1 416.5049 350.4711)" class="st1 st2 st3">BRS</text>
		</g>
		<g id="il-17">
			<polygon class="st0" points="227.67,363.26 233.07,368.26 227.06,387.22 215.12,392.54 200.19,399.21 199.9,399.26 
				189.31,394.45 180.24,398.25 174.81,395.06 129.56,411.57 128.76,434.26 128.85,438.26 54,452.39 65,394.23 61.2,387.77 
				69.83,360.58 73.25,362.9 73.25,347.35 64.54,351.97 72.81,303.26 146.7,262.76 141.19,249.81 138.61,250.18 142.42,236.98 
				169,224.51 175.32,232.51 173.95,251.41 173.32,260.07 88.29,326.26 88.95,339.02 73.25,347.35 73.25,362.9 204.33,281.06 
				211.14,289.44 209.5,296.58 242.89,307.94 244.33,311.93 222.33,331.83 223.33,338.28 226.65,337.16 232.99,340.93 			"/>
			<text transform="matrix(1 0 0 1 113.4804 375.2943)" class="st1 st2 st3">ÇNK</text>
		</g>
		<g id="il-18">
			<polygon class="st0" points="1075.68,289.16 1052.35,317.24 1020.1,307.58 976.5,294.51 972.44,305.2 878.05,240.26 
				866.81,239.74 857.68,252.27 872.45,221.04 904.33,192.59 922.67,196 949.64,180.76 952.33,179.24 973.59,195.26 1036.93,177.33 
				1032,203.93 1058.45,217.2 1059.53,221.72 1064,224.61 			"/>
			<text transform="matrix(1 0 0 1 964.683 250.0268)" class="st1 st2 st3">ÇNK</text>
		</g>
		<g id="il-19">
			<polygon class="st0" points="1241.26,261.26 1224.5,316.52 1223.67,322.4 1203.43,329.25 1206.82,333.29 1201.32,347.83 
				1080.09,372.51 1054.76,314.46 1075.68,289.16 1064,224.61 1059.53,221.72 1058.45,217.2 1086.01,206.77 1087.6,204.07 
				1091.75,197.01 1082.06,186.88 1105.15,138.75 1117.93,142.26 1161.42,157.01 1168.49,150.8 1177.58,174.34 1189.78,176.01 
				1195.25,242.93 			"/>
			<text transform="matrix(1 0 0 1 1115.499 281.6615)" class="st1 st2 st3">ÇRM</text>
		</g>
		<g id="il-20">
			<polygon class="st0" points="523.75,731.2 529.23,744.62 510.8,758.5 510.79,758.51 508.27,760.4 491.37,773.12 490.5,791.93 
				496.33,796.08 473.7,882.56 456.99,888.19 382.33,808.85 376.66,808.6 370.32,773.93 392.93,768.52 400.74,755.33 409.01,753.95 
				411.34,747.26 394.92,730.33 395.92,697.68 388.08,692.19 387.21,684.29 387.22,684.29 398.05,679.27 397.06,667.06 
				400.56,663.27 403.85,662.96 403.86,662.95 412.27,657.89 414.41,659.37 414.73,659.58 421.51,661.6 433,665.01 498.58,654.25 
				505.33,628.83 506.24,628.58 506.25,628.58 538.43,631.51 552.99,660.76 555.25,668.51 507.98,706.29 506.75,726.26 			"/>
			<text transform="matrix(1 0 0 1 441.6699 760.3964)" class="st1 st2 st3">DNZ</text>
		</g>
		<g id="il-21">
			<polygon class="st4" points="1982.25,621.18 1945.32,722.91 1950.6,738.24 1948.68,745.35 1912.34,748.25 1906.76,742.16 
				1887.32,740.24 1880.6,760.22 1802.69,776.46 1802.68,776.46 1799.66,767.49 1799.66,767.48 1786.67,728.93 1779,736.58 
				1714.82,696.19 1713.28,695.22 1716.96,693.97 1719.25,671.27 1714.71,666.54 1708.43,672.7 1701.02,670.77 1701.27,669.11 
				1702.64,660.06 1704.91,645.11 1704.91,645.08 1704.86,644.49 1705.1,643.86 1851.67,620.02 1877,614.76 1881.04,596.46 
				1970.3,578.79 1971.2,579.52 1991.83,596.02 1989.33,605.43 1996.33,617.85 			"/>
			<text transform="matrix(1 0 0 1 1860.0337 697.119)" class="st1 st2 st3">DİY</text>
		</g>
		<g id="il-22">
			<polygon class="st5" points="158.27,76.04 170.74,86.74 162.46,135.62 155.65,133.89 157.26,166.02 137.98,178.48 142.42,236.98 
				141.01,242.11 138.61,250.18 138.48,250.62 116.02,255.29 111.79,260.5 54.66,259.47 48.22,238.75 56.68,236.29 76.48,207.92 
				79.48,207.73 88.17,198.03 87.28,193.55 90.74,189.56 85.3,149.47 122.18,134.67 118.24,89.13 87.17,66.01 92.29,51.54 
				110.47,49.78 114.74,44.98 115.02,31.53 171.95,20.16 172.04,20.14 			"/>
			<text transform="matrix(1 0 0 1 103.58 163.6673)" class="st1 st2 st3">EDR</text>
		</g>
		<g id="il-23">
			<polygon class="st0" points="1851,541.58 1863.33,565.93 1854.67,578.6 1849.42,578.33 1851.62,619.06 1851.67,620.02 
				1705.1,643.86 1704.86,644.49 1698.25,644.01 1684.75,647.51 1607.69,613.26 1612.43,587.99 1618.76,585.77 1622.68,575.01 
				1630.5,573.01 1636.75,576.01 1642.21,571.54 1640,527.5 1646.54,526.46 1647.21,526.35 1653.13,525.41 1653.15,525.4 
				1655.24,525.07 1660.88,537.31 1661.47,538.6 1661.33,539.06 1659,546.58 1665.18,553.93 1787.03,561.41 1793.52,549.03 
				1798.82,548.83 1802.44,532 1797.51,526.77 1857.41,493.93 1863.68,496.26 1853.49,532.69 1853.49,532.7 			"/>
			<text transform="matrix(1 0 0 1 1697.0337 600.8163)" class="st1 st2 st3">ELĞ</text>
		</g>
		<g id="il-24">
			<polygon class="st0" points="1899.32,409.93 1893.95,439.9 1893.87,440.37 1881.33,442.39 1884.09,438.97 1878.65,438.28 
				1665.21,477.11 1665.99,484.47 1669.68,486.93 1657.8,493.91 1658.21,501.43 1652.66,505.58 1655.67,523.76 1653.15,525.4 
				1653.13,525.41 1647.21,526.35 1634.27,520.33 1634.22,520.31 1634.14,520.27 1634.1,520.25 1633.91,520.16 1607.34,507.77 
				1605.53,505.99 1610.59,500.58 1606.64,470.22 1614.99,458.66 1614.99,458.66 1615,458.65 1614.99,458.58 1607.93,414.85 
				1621.67,394.93 1630,393.69 1619.26,386.83 1611.67,389.93 1608.67,382.58 1613.32,367.26 1629.58,371.93 1644.67,364.91 
				1653.01,367.6 1657.67,361.58 1656.07,354.6 1655.65,352.79 1655.64,352.79 1655.5,352.16 1716.82,363.41 1718.7,369.35 
				1773.43,371.31 1784.45,368.7 1784.46,368.7 1784.51,368.69 1849.54,350.47 1849.28,353.39 1847.33,375.52 1878.93,379.25 
				1885,402.58 			"/>
			<text transform="matrix(1 0 0 1 1712.9946 423.4877)" class="st1 st2 st3">ERN</text>
		</g>
		<g id="il-25">
			<polygon class="st0" points="2099.67,383.58 2132.41,410.66 2130.08,443.01 2096.4,458.83 2097.98,467.33 2050.32,502.83 
				1990,465.19 1966.71,468.18 1925.03,434.58 1893.95,439.9 1899.32,409.93 1885,402.58 1878.93,379.25 1847.33,375.52 
				1849.28,353.39 1849.54,350.47 1913.65,327.87 1916.01,327.04 1915.88,320.43 1885.75,307.02 1879.15,268.93 1919.84,250.71 
				1918.96,245.1 1951.35,218.06 1958.58,219.87 1986.67,226.93 1990.66,234.1 1983.99,248.76 1986.67,259.44 1991.33,262.39 
				2027.17,245.93 2049.5,257.76 2054.89,245.98 2067.67,218.06 2065.46,211.58 2071.29,200.41 2074.12,199.82 2075.33,198.18 
				2104.39,193.47 2104.45,193.46 2104.57,193.44 2106.79,192.98 2107.69,192.79 2107.69,192.8 2108.13,194.28 2108.74,196.31 
				2114.19,214.56 2114.27,214.68 2114.27,214.69 2135.67,285.86 2084.65,315.26 2138.78,367.65 			"/>
			<text transform="matrix(1 0 0 1 1993.0103 377.5209)" class="st1 st2 st3">ERM</text>
		</g>
		<g id="il-26">
			<polygon class="st0" points="784.32,500.16 784.46,513.26 763.59,517.12 762.3,514.26 728.65,514.26 711.49,485.02 
				674.33,505.71 662.17,495.08 632,517.93 614.67,507.43 615.5,499.58 606.99,495.66 603.19,501.61 565.76,423.21 593.75,371.5 
				606.06,372.83 627.25,333.01 640.25,330.76 640.33,330.2 655,335.93 656.17,335 669.25,359.77 758.53,354.47 758.89,354.45 
				765.74,365.25 784.44,384.71 786.76,388.25 800.94,468.75 799.24,470.25 808,480.76 			"/>
			<text transform="matrix(1 0 0 1 652.4482 431.1459)" class="st1 st2 st3">ESK</text>
		</g>
		<g id="il-27">
			<polygon class="st0" points="1564.48,897.29 1566.6,900.91 1508.17,924.23 1494.48,911.16 1483.25,918.33 1441.33,885.58 
				1440.01,877.93 1427.33,868.91 1393.46,902.53 1370.59,885.58 1402.66,824.82 1402.67,824.82 1412.33,822.33 1418.41,810.58 
				1426.66,812.25 1429.67,826.25 1441.25,830.93 1510,806.19 1514.58,790.58 1512.68,786.1 1564.07,791.47 1567.42,796.86 
				1566.02,796.41 1566.21,797.47 1560.75,797.51 1545.21,835.97 1540.94,836 1545.75,856.52 1543.8,858.81 1552.25,865.71 
				1556.46,863.82 1566.51,893.01 			"/>
			<text transform="matrix(1 0 0 1 1465.0415 875.7265)" class="st1 st2 st3">GAZ</text>
		</g>
		<g id="il-28">
			<polygon class="st0" points="1716.82,363.41 1655.5,352.16 1592,323.58 1581.19,273.25 1580.05,267.91 1569.5,256.26 
				1576.32,198.74 1707.7,178.63 1705.12,229.85 1700.19,232.52 1694,231.26 1674.75,248.76 1677.46,257.02 1669.01,261.32 
				1667.57,272.51 1698.75,296.51 1676.91,332.12 1675.75,334.01 1677.53,338.79 1677.53,338.82 1681.61,349.82 			"/>
			<text transform="matrix(1 0 0 1 1605.6938 260.7494)" class="st1 st2 st3">GİR</text>
		</g>
		<g id="il-29">
			<polygon class="st0" points="1821.99,271.11 1817.5,277.77 1807,277.26 1802,282.33 1797.84,286.57 1791.25,293.26 
				1793.19,327.45 1768.75,347.51 1770.57,358.7 1780.51,365.77 1784.51,368.69 1784.46,368.7 1784.45,368.7 1773.43,371.31 
				1718.7,369.35 1716.82,363.41 1681.61,349.82 1677.53,338.82 1677.53,338.79 1675.75,334.01 1676.91,332.12 1698.75,296.51 
				1667.57,272.51 1669.01,261.32 1677.46,257.02 1674.75,248.76 1694,231.26 1700.19,232.52 1705.12,229.85 1714.49,231.76 
				1722,228.01 1729.76,243.43 1769.5,262.76 1777.74,247.19 1796.5,266.76 1797.5,256.51 1803,255.26 1820.86,270.16 			"/>
			<text transform="matrix(1 0 0 1 1715.311 318.4877)" class="st1 st2 st3">GMŞ</text>
		</g>
		<g id="il-30">
			<polygon class="st4" points="2417.76,835.51 2419.46,842.78 2365.5,863.49 2361.24,876.2 2355.75,876.26 2347.82,849.45 
				2353.44,846.2 2354.75,837.08 2346.44,822.95 2325.43,818.06 2308.75,835.01 2305.25,834.32 2300.69,838.33 2238.48,816.75 
				2258.38,750.48 2258.71,749.37 2272.88,745.66 2335.24,729.33 2340.2,733.26 2337.82,751.7 2377.88,738.5 2378.04,740.47 
				2388,738.7 2399.22,753.77 2392.47,757.41 2392.55,766 2398,770.76 2395.57,797.22 2412.7,807.06 2414.25,813.39 2421.18,817.51 
				2425,824.82 			"/>
			<text transform="matrix(1 0 0 1 2311.022 796.3963)" class="st1 st2 st3">HKR</text>
		</g>
		<g id="il-31">
			<polygon class="st0" points="1396.17,1003.12 1360,1010.89 1354.33,1043.6 1347,1044.39 1346.82,1049.93 1337.67,1048.97 
				1330.25,1073.12 1328.46,1074.26 1311,1061.93 1309.45,1056.16 1300.18,1056.58 1306.5,1043.26 1281.83,988.79 1335,933.76 
				1310.17,885.96 1311.76,867.56 1311.71,868.7 1311.72,868.7 1349.17,876.9 1351.5,878.95 1370.59,885.58 1393.46,902.53 
				1382.63,974.1 1386.84,976.58 1387.4,985.03 1394,990.76 			"/>
			<text transform="matrix(1 0 0 1 1320.7524 991.5994)" class="st1 st2 st3">HTY</text>
		</g>
		<g id="il-32">
			<polygon class="st0" points="754.92,678.68 754.42,686.58 729.33,708.26 726.34,759.6 718.58,761.16 719.89,799.33 
				672.41,811.58 664.59,798.33 656.73,797.19 595.02,730.68 567.54,729.33 575.84,726.25 576.83,708.58 687.13,613.25 
				705.33,627.58 707.68,627.4 732.72,665.87 738.45,667.51 742.57,668.69 746.72,677.54 			"/>
			<text transform="matrix(1 0 0 1 645.0292 717.7382)" class="st1 st2 st3">ISP</text>
		</g>
		<g id="il-33">
			<polygon class="st5" points="1191.68,862.91 1191,902.93 1188.38,905.21 1178.5,913.79 1178.49,913.79 1177.33,914.26 
				1171.43,919.94 1155.04,905.04 1065.28,975.48 1065.84,989.1 1048.99,1006.93 1046.64,993.54 1040.66,990.58 1016.47,1020.07 
				1011.55,1011.26 996.8,1022.07 988.46,1016.76 947.43,1021.96 942.69,1027.41 942.68,1029.58 874.98,1027.83 877.04,1016.65 
				877.04,1016.64 879.47,982.62 886.41,965.72 938.6,961.93 944.74,947.33 957,951.58 951.75,936.83 942.05,931.49 942.05,931.48 
				926.99,904.91 942.33,897.26 945.33,903.58 951.58,903.19 957.67,885.83 1058.59,850.21 1061.03,848.73 1091.3,830.37 
				1121.96,817.66 1152.94,804.79 1176.07,861.19 			"/>
			<text transform="matrix(1 0 0 1 1008.5195 933.0877)" class="st1 st2 st3">MER</text>
		</g>
		<g id="il-34">
			<polygon class="st0" points="533.67,179.59 500.67,207.59 479.34,190 455.73,213.17 427.19,195.75 425.53,186.72 434.33,171.06 
				432.83,163.1 443.19,152.82 434.34,149.84 436.5,155.44 428.9,163.39 431.16,169.26 410.72,196.02 372.25,196.01 368.26,178.96 
				364.74,181.02 366.55,191.24 312.15,180.09 319.5,113.01 329.96,105.7 434.26,149.68 443.33,152.72 532.75,166.22 			"/>
			<text transform="matrix(1 0 0 1 450.956 181.2542)" class="st1 st2 st3">İST</text>
			<text transform="matrix(1 0 0 1 346.956 159.2542)" class="st1 st2 st3">İST</text>
		</g>
		<g id="il-35">
			<polygon class="st5" points="365.82,683.54 236.56,705.33 234.21,713.22 210.31,722.26 203.47,722.16 202.54,716.47 
				204.01,715.26 204,713.23 196.5,704.58 190,706.04 167,691.58 154.17,696.58 140.67,672.94 142.17,668.93 138.5,666.79 
				124.54,669.54 121.97,679.72 120.36,680.79 120.67,683.06 118,685.31 99.33,667.08 96.64,668.06 90,662.29 88.22,665.1 
				74.16,656.58 74.83,652.58 78.55,652.81 80.87,645.93 80.13,643.93 84.01,638.54 85.84,641.93 84.86,645.23 89.67,649.76 
				92.33,643.93 95.12,645.76 102.8,641.25 101.83,631.6 104.87,632.6 107.33,630.37 97,622.76 93.81,626.74 88.88,601.57 
				87.45,600.76 88.47,590.87 95.83,587.25 125.34,622.93 120.16,624.43 119.66,631.02 121.34,631.93 125.54,645.27 130.68,648.58 
				134.33,628.37 145.5,642.43 190.17,626.46 189,624.97 169.29,624.87 165.79,628.1 159.96,627.12 159.68,623.74 149.05,613.11 
				148.83,599.79 144.67,601.2 141.96,597.77 138.66,596.97 138.33,595.08 136.67,593.93 136,590.89 138.33,587.81 135.66,579.76 
				146.74,573.77 156.79,578.39 158,573.75 161.5,571.77 157.54,563.29 161.5,561.43 164,566.26 166.29,564.79 164.87,560.76 
				171.68,554.91 175.04,556.81 176.3,554.37 178.05,553.79 175.83,550.41 177,546.6 174.47,542.93 170.96,547.58 167.64,543.95 
				151.33,545.76 149.17,547.93 144,531.76 146.84,529.43 146.67,527.47 154.62,521.22 148.02,505.94 140.54,502.28 207.01,451.52 
				224.26,465.52 224.39,465.51 239.94,522 202.23,572.99 199.26,577 283.5,645.02 287.76,634.26 314.19,633.81 314.54,648.22 
				332.76,648.03 336.75,644.76 363.21,660.25 			"/>
			<text transform="matrix(1 0 0 1 201.4736 650.0077)" class="st1 st2 st3">İZR</text>
		</g>
		<g id="il-36">
			<polygon class="st4" points="2279.97,316.29 2282.18,337.02 2243.41,341.33 2242.26,349.26 2158.67,373.58 2138.78,367.65 
				2084.65,315.26 2135.67,285.86 2114.27,214.69 2134.69,246.27 2177.57,243.01 2184.57,208.25 2227.94,193.28 2232.01,179.02 
				2251.84,176.42 2289,245.25 2265.98,283.26 2273.25,292.52 2270.79,306.94 			"/>
			<text transform="matrix(1 0 0 1 2174.8306 295.8002)" class="st1 st2 st3">KRS</text>
		</g>
		<g id="il-37">
			<polygon class="st0" points="1129.44,77.01 1128.92,79.14 1123.92,99.61 1105.15,138.75 1082.06,186.88 1091.75,197.01 
				1087.6,204.07 1086.01,206.77 1058.45,217.2 1032,203.93 1036.93,177.33 973.59,195.26 952.33,179.24 949.64,180.76 
				936.97,173.08 936.96,173.08 920.74,163.26 934.26,121.76 920.74,100.2 907.76,96.3 888.59,48.93 976.5,16.09 1082.53,27.78 
				1073.69,62.83 1127.03,76.4 			"/>
			<text transform="matrix(1 0 0 1 996.8369 104.4876)" class="st1 st2 st3">KAS</text>
		</g>
		<g id="il-38">
			<polygon class="st0" points="1424.25,510.76 1402.82,595.27 1376.27,642.29 1369.38,640.61 1366.58,639.93 1359.33,623.51 
				1343.74,623.68 1253,742.19 1203.26,737.33 1209.66,728.28 1207.41,720.58 1215.95,709.54 1205,670.26 1191.65,672.26 
				1170.88,635.23 1174.21,625.46 1192.67,603.58 1192.02,573.16 1176.58,567.33 1186.55,523.77 1210.41,532.18 1286.1,474.44 			
				"/>
			<text transform="matrix(1 0 0 1 1265.0278 586.2068)" class="st1 st2 st3">KAY</text>
		</g>
		<g id="il-39">
			<polygon class="st5" points="329.96,105.7 319.5,113.01 295.2,106.2 285.25,111.01 274.31,106.95 255.56,114.57 242.51,148.52 
				233.75,153.76 162.46,135.62 170.74,86.74 158.27,76.04 171.95,20.16 175.74,4.7 193.68,9.96 197.19,3.46 203,1.69 238.43,34.82 
				261.25,24.57 271.99,29.52 282.13,20.32 288,23.51 293.05,21.26 298.01,23.55 301.76,41.01 295.75,39.01 292,42.51 			"/>
			<text transform="matrix(1 0 0 1 205.8564 79.2376)" class="st1 st2 st3">KRK</text>
		</g>
		<g id="il-40">
			<polygon class="st0" points="1155.93,468.26 1147.86,462.49 1144.04,465.22 1131.49,463.75 1139.56,509.31 1133.94,513.44 
				1102.55,536.54 1104.5,557.51 1100.56,557.94 1085.16,545.81 1084.96,545.04 1078.96,543.04 1066,548.82 1063.51,537.51 
				1045.75,527.83 1045.27,525.32 995.66,486.58 999,479.58 998.09,475.71 1063.5,391.33 1063.5,391.24 1064.12,390.43 			"/>
			<text transform="matrix(1 0 0 1 1057.3369 485.3939)" class="st1 st2 st3">KIR</text>
		</g>
		<g id="il-41">
			<polygon class="st0" points="588.33,199.76 586.16,202.26 591.86,206.1 566.84,256.26 540,263.76 501.23,264.37 501.21,264.37 
				476.97,264.77 477.2,255.12 477.61,244.62 486.7,237.43 494.01,245.27 536.67,240.08 541.33,234.54 539,231.58 486.66,231.96 
				467.67,232.1 464.13,222.81 458.83,223.43 456.71,221.47 460.38,219.64 459.12,215.39 455.73,213.17 479.34,190 500.67,207.59 
				533.67,179.59 532.75,166.22 543.3,167.39 544.5,165.91 571.17,167.47 584.68,155.58 603.45,163.01 598.03,177.26 600.38,183.6 
				605.3,184.46 605.68,185.26 612.83,187.93 607.83,201.93 			"/>
			<text transform="matrix(1 0 0 1 524.4101 217.1966)" class="st1 st2 st3">KCL</text>
		</g>
		<g id="il-42">
			<polygon class="st0" points="1121.96,817.66 1091.3,830.37 1061.03,848.73 1059.31,843.66 1060.81,829.93 1062.01,818.93 
				1014.15,759 981.92,789.83 962.75,789.53 955.4,781.37 895.33,850.26 899.24,856.69 896.32,860.61 915.95,884.2 861.62,914.33 
				853.6,899.5 845,898.53 840.91,885.93 846.34,879.58 731.02,813.58 729.23,806.19 719.89,800.33 718.58,762.16 726.34,760.6 
				729.33,709.26 754.42,687.58 754.92,679.68 746.72,678.54 742.57,669.69 738.45,668.51 732.72,666.87 707.68,628.4 
				705.33,628.58 769.39,538.45 762,530.26 762.3,514.26 763.59,517.12 784.46,513.26 784.32,500.16 794.35,505.91 818,526.93 
				840.35,521.58 862.29,532.26 909.07,504 931.7,512.6 934.58,498.58 945.98,496.66 959.71,504.7 959.72,504.7 962.19,506.15 
				969.33,510.33 988.07,593.19 988.21,593.25 959.07,662.58 962.08,668.51 983.66,710.93 1076.02,702.94 1113.75,764 
				1104.52,790.03 1121.41,812.12 			"/>
			<text transform="matrix(1 0 0 1 861.0034 708.0956)" class="st1 st2 st3">KON</text>
		</g>
		<g id="il-43">
			<polygon class="st0" points="603.19,501.61 590.55,521.37 590.53,521.4 536.93,580.65 536.96,579.15 537.15,568.94 
				537.17,568.08 537.16,568.08 537.17,567.76 519.6,553.58 495.99,555.01 492.13,571.56 439.33,569.29 439.17,569.41 
				431.61,575.01 426.13,579.06 427.31,560.76 420.55,552.26 422.81,547.02 392.2,516.07 379.28,503.01 381.5,501.9 379.8,495.76 
				422.57,434.78 434.75,438.77 441.25,435.76 447.81,437.75 476.5,373.57 493.75,380.76 507.19,376.82 505.8,396.52 537.31,427.19 
				564.5,423.39 565.76,423.21 			"/>
			<text transform="matrix(1 0 0 1 474.646 504.0795)" class="st1 st2 st3">KTH</text>
		</g>
		<g id="il-44">
			<polygon class="st0" points="1704.91,645.08 1704.91,645.11 1702.64,660.06 1701.27,669.11 1689.05,671.43 1672.5,685.28 
				1636.91,681.35 1634.53,674.26 1639.01,665.9 1632.47,661.71 1621.53,665.83 1618.5,664.76 1615.07,668.26 1615.07,668.26 
				1608.14,670.87 1601.69,681.89 1601.64,681.94 1586.01,697.86 1585,710.26 1507.53,731.41 1532.93,649.94 1462.65,623.61 
				1469.36,600.02 1471.18,600 1511,559.58 1507.07,528.58 1532.7,536.02 1570.67,517.26 1574.99,518.58 1578.33,519.6 
				1591.84,511.64 1591.87,511.62 1610.59,500.58 1605.53,505.99 1607.34,507.77 1633.91,520.16 1634.1,520.25 1634.14,520.27 
				1634.22,520.31 1634.27,520.33 1646.54,526.46 1640,527.5 1642.21,571.54 1636.75,576.01 1630.5,573.01 1622.68,575.01 
				1618.76,585.77 1612.43,587.99 1607.69,613.26 1684.75,647.51 1698.25,644.01 1704.86,644.49 			"/>
			<text transform="matrix(1 0 0 1 1543.9751 625.4804)" class="st1 st2 st3">MLT</text>
		</g>
		<g id="il-45">
			<polygon class="st0" points="427.31,560.76 426.13,579.06 426.02,579.14 423.17,581.25 423.17,581.26 410.74,590.45 
				410.75,590.78 410.76,591.02 410.95,597.97 404.19,599.26 404.2,599.58 405.26,654.2 407.74,654.76 412.27,657.89 403.86,662.95 
				403.85,662.96 400.56,663.27 397.06,667.06 398.05,679.27 387.22,684.29 387.21,684.29 365.82,683.54 363.21,660.25 
				336.75,644.76 332.76,648.03 314.54,648.22 314.19,633.81 287.76,634.26 283.5,645.02 199.26,577 202.23,572.99 239.94,522 
				224.39,465.51 224.26,465.52 207.01,451.52 285.49,478.26 276.93,488.75 295.76,492.25 310.68,521.27 379.28,503.01 
				392.2,516.07 422.81,547.02 420.55,552.26 			"/>
			<text transform="matrix(1 0 0 1 301.4218 582.4042)" class="st1 st2 st3">MNS</text>
		</g>
		<g id="il-46">
			<polygon class="st0" points="1490.69,770.86 1514.58,790.58 1510,806.19 1441.25,830.93 1429.67,826.25 1426.66,812.25 
				1418.41,810.58 1412.33,822.33 1402.67,824.82 1402.66,824.82 1401.15,825.21 1378.33,806.58 1342,809.19 1347.09,753.73 
				1347.08,752.64 1350.94,752.58 1372.27,645.53 1369.38,640.61 1376.27,642.29 1402.82,595.27 1424.25,510.76 1403.12,600.82 
				1445.93,600.29 1446.02,600.29 1469.36,600.02 1462.65,623.61 1532.93,649.94 1507.53,731.41 1498.02,749.89 1487.65,754.61 			
				"/>
			<text transform="matrix(1 0 0 1 1414.6021 714.7401)" class="st1 st2 st3">MRŞ</text>
		</g>
		<g id="il-47">
			<polygon class="st4" points="2048.65,784.58 2050.1,787.5 2047.41,797 2023.98,799.26 2017,831.93 2031.35,838.93 
				2028.34,852.29 1847.68,886.52 1835.74,874.57 1813.32,807.99 1813.29,807.95 1803,777.41 1802.69,776.46 1880.6,760.22 
				1887.32,740.24 1906.76,742.16 1912.34,748.25 1948.68,745.35 1949.44,744.37 1966,782.93 2045.62,760.64 2054.24,772.99 
				2054.49,773.35 			"/>
			<text transform="matrix(1 0 0 1 1896.5747 819.1131)" class="st1 st2 st3">MRD</text>
		</g>
		<g id="il-48">
			<polygon class="st5" points="507.78,883.58 481,962.39 477.17,960.76 465,967.92 462.33,988.76 456.18,993.44 451.75,987.53 
				445.38,986.67 436.28,974.64 438.85,973.14 436.25,961.12 438.62,958.37 437.72,951.01 432.6,948.51 427.39,950.99 428.5,948.26 
				426.16,945.51 427.38,939.1 433.49,934.12 437.25,937.37 438.5,935.16 416.13,918.87 404.13,933.77 373.38,918.76 374.38,911.01 
				366.73,902.49 363.53,905.26 363.98,909.37 353.53,903.73 355.38,895.75 353.89,894.78 346.99,910.77 338.75,905.87 
				336.47,908.67 331.65,908.36 334.13,901.51 331.87,898.62 327.27,905.24 334.9,917.83 334.53,920.9 332.1,920.01 296.25,949.77 
				292,942.48 297.75,940.75 299.12,941.76 307.13,936.42 305.85,934.16 303.02,933.86 302.65,926.87 299.02,929.39 291.62,926.76 
				301.77,920.53 310.58,921.62 311.81,918.26 308.42,916.33 312.84,910.93 307.83,908.77 305.67,913.08 289.82,913.58 
				261.99,914.46 256.67,930.96 241.66,929.27 240.8,927.79 237.83,929.6 235.87,928.46 230.17,933.08 215.17,924.43 221.68,921.43 
				222.66,918.04 229.33,913.43 231.7,915.39 248.67,911.76 251.34,905.26 252.32,906.6 255.05,906.76 258.04,909.39 260.94,908.85 
				282.62,904.79 289.67,908.86 294,907.11 296.3,908.26 301.5,907.12 302.81,903.48 298.99,901.76 298,898.1 302.5,895.11 
				299.83,888.41 303.24,884.08 316.38,884.48 316.83,882.58 321.01,880.93 323.87,873.54 327.54,874.14 329.67,870.42 337,867.48 
				253.63,874.21 251.96,876.6 243.17,875.26 240.67,877.43 236.67,875.42 232.51,876.91 230.33,881.1 223.88,874.12 226.34,871.6 
				220.95,871.87 220.38,873.1 218.5,873.93 215.89,870.53 208.5,880.42 201.45,876.96 202.83,851.27 209.33,852.43 209.83,847.89 
				212.8,846.45 215.13,848.43 216.5,846.76 229.84,858.73 239.5,849.44 238.58,847.08 235,849.91 231.77,848.01 247,826.6 
				234.34,833.43 233,828.22 229.67,830.43 227.8,828.06 233.67,817.75 230,817.92 228.34,821.46 223.87,821.56 218.12,814.93 
				225.33,803.93 223.48,802.49 229.41,781.33 319.08,788.91 324.06,776.65 370.65,789.33 373.14,790.01 376.66,808.6 
				382.33,808.85 456.99,888.19 473.7,882.56 492.49,868.26 			"/>
			<text transform="matrix(1 0 0 1 339.3291 860.8924)" class="st1 st2 st3">MUĞ</text>
		</g>
		<g id="il-49">
			<polygon class="st4" points="2156.32,538.6 2156.93,542.04 2086,550.91 2084.76,559.35 2068.38,561.57 2074.26,582.5 
				2056.67,599.51 2013.91,599.18 2009.91,607.25 2008.52,607.6 2007.83,607.08 1995.98,610.76 1995.87,610.79 1989.33,605.43 
				1991.83,596.02 1971.2,579.52 1970.3,578.79 1961.24,544.93 1975.43,525.93 1974.25,509.6 1972.32,502.32 1964.6,473.18 
				1967.96,469.19 1966.71,468.18 1990,465.19 2050.32,502.83 2097.98,467.33 2096.4,458.83 2130.08,443.01 2132.41,410.66 
				2135.93,470.02 2157.5,535.44 2155.44,535.89 			"/>
			<text transform="matrix(1 0 0 1 2027.481 541.2577)" class="st1 st2 st3">MUŞ</text>
		</g>
		<g id="il-50">
			<polygon class="st0" points="1192.67,603.58 1174.21,625.46 1170.88,635.23 1159.67,642.68 1113.33,632.66 1106.92,627.79 
				1106.92,627.79 1106.75,624.91 1105.24,599.76 1085.24,592.02 1085.15,577.24 1088.75,571.51 1085.16,545.81 1100.56,557.94 
				1104.5,557.51 1102.55,536.54 1133.94,513.44 1139.56,509.31 1131.49,463.75 1144.04,465.22 1147.86,462.49 1155.93,468.26 
				1156.99,476.02 1167.58,482.58 1171.03,492.16 1182.36,502.91 1180.4,518.41 1186.55,523.77 1176.58,567.33 1192.02,573.16 			
				"/>
			<text transform="matrix(1 0 0 1 1127.1592 586.2068)" class="st1 st2 st3">NEV</text>
		</g>
		<g id="il-51">
			<polygon class="st0" points="1209.66,728.28 1203.26,737.33 1187.59,753.18 1160,756.91 1164.67,783.26 1155.68,791.19 
				1154.33,803.58 1152.94,804.79 1121.96,817.66 1121.41,812.12 1104.52,790.03 1113.75,764 1076.02,702.94 1057.89,703.14 
				1064.76,691.32 1088.73,668.51 1108.25,649.94 1106.92,627.79 1113.33,632.66 1159.67,642.68 1170.88,635.23 1191.65,672.26 
				1205,670.26 1215.95,709.54 1207.41,720.58 			"/>
			<text transform="matrix(1 0 0 1 1131.8428 719.9628)" class="st1 st2 st3">NİĞ</text>
		</g>
		<g id="il-52">
			<polygon class="st0" points="1560.32,280.25 1563,287.91 1557.33,293.26 1548,292.26 1540.75,299.91 1524.66,299.83 
				1512.73,285.33 1515.44,284.46 1514.78,280.58 1511.33,265.26 1452.5,242.26 1451.13,243.6 1395.21,218.46 1401.88,213.2 
				1419.39,199.38 1461.17,166.42 1504.33,186.93 1523.15,168.92 1526.21,171.76 1534.33,171.13 1535.62,174.23 1534.38,177.94 
				1539.37,187.23 1544.51,187.55 1548.7,194.1 1576.32,198.74 1569.5,256.26 1580.05,267.91 1581.19,273.25 			"/>
			<text transform="matrix(1 0 0 1 1493.5845 228.0072)" class="st1 st2 st3">ORD</text>
		</g>
		<g id="il-53">
			<polygon class="st0" points="1995.26,175.76 1969.44,202.96 1951.35,218.06 1918.96,245.1 1919.84,250.71 1879.15,268.93 
				1879.09,269.16 1859.73,191.4 1873.5,183.93 1881.84,187.6 1968.28,138.45 			"/>
			<text transform="matrix(1 0 0 1 1896.5825 204.6106)" class="st1 st2 st3">RİZ</text>
		</g>
		<g id="il-54">
			<polygon class="st0" points="663,237.29 653.99,244.25 655.37,252.66 655.39,256.26 636.5,264.26 624.76,289.28 631.94,297.26 
				629.03,304.18 608.9,301.73 607.74,295.76 587.49,293.01 585.76,295.08 565.55,297.71 540,263.76 566.84,256.26 591.86,206.1 
				586.16,202.26 588.33,199.76 607.83,201.93 612.83,187.93 605.68,185.26 605.3,184.46 600.38,183.6 598.03,177.26 603.45,163.01 
				669.74,178.77 			"/>
			<text transform="matrix(1 0 0 1 594.3515 248.5042)" class="st1 st2 st3">SAK</text>
		</g>
		<g id="il-55">
			<polygon class="st0" points="1461.17,166.42 1419.39,199.38 1401.88,213.2 1383.74,207.18 1372.78,213.05 1336.99,189.3 
				1316,216.76 1241.32,186.46 1237.5,188.51 1206.69,178.33 1189.78,176.01 1177.58,174.34 1168.49,150.8 1198.25,124.67 
				1205.98,144.93 1222.33,151.26 1234.07,142.98 1242.24,144.34 1246.67,141.93 1243.91,81.45 1300.83,66.72 1326.79,85.12 
				1326.51,98.77 1324,101.66 1368.34,150.26 1386.83,127.26 1439.5,149.09 1442.16,162.26 			"/>
			<text transform="matrix(1 0 0 1 1297.4341 160.2669)" class="st1 st2 st3">SMN</text>
		</g>
		<g id="il-56">
			<polygon class="st0" points="2199.17,745.5 2178.75,760.51 2144.44,745.32 2054.49,773.35 2054.24,772.99 2045.62,760.64 
				2045.28,751.65 2028.98,748.26 2031.67,731.58 1992.67,707.93 2005.33,689.91 2014,689.93 2027.34,664.33 2037.57,670.78 
				2074.74,661.25 2159.01,711.77 2162.25,707.01 2165.32,706.45 2179.77,709.2 			"/>
			<text transform="matrix(1 0 0 1 2076.5884 727.5019)" class="st1 st2 st3">SRT</text>
		</g>
		<g id="il-57">
			<polygon class="st0" points="1246.67,141.93 1242.24,144.34 1234.07,142.98 1222.33,151.26 1205.98,144.93 1198.25,124.67 
				1168.49,150.8 1161.42,157.01 1117.93,142.26 1105.15,138.75 1123.92,99.61 1128.92,79.14 1129.44,77.01 1127.03,76.4 
				1073.69,62.83 1082.53,27.78 1118.3,24.96 1124.83,30.6 1167.66,19.39 1177.71,5.56 1197.46,20.26 1193.49,33.43 1243.91,81.45 
							"/>
			<text transform="matrix(1 0 0 1 1160.6387 85.4936)" class="st1 st2 st3">SNP</text>
		</g>
		<g id="il-58">
			<polygon class="st0" points="1657.67,361.58 1653.01,367.6 1644.67,364.91 1629.58,371.93 1613.32,367.26 1608.67,382.58 
				1611.67,389.93 1619.26,386.83 1630,393.69 1621.67,394.93 1607.93,414.85 1614.99,458.58 1614.99,458.66 1606.64,470.22 
				1610.59,500.58 1591.87,511.62 1591.84,511.64 1578.33,519.6 1574.99,518.58 1570.67,517.26 1532.7,536.02 1507.07,528.58 
				1511,559.58 1471.18,600 1469.36,600.02 1446.02,600.29 1445.93,600.29 1403.12,600.82 1424.25,510.76 1286.1,474.44 
				1335.33,415.28 1322.91,374 1322.72,373.37 1390.93,359.19 1409.33,325.16 1508.01,301.93 1512.73,285.33 1524.66,299.83 
				1540.75,299.91 1548,292.26 1557.33,293.26 1563,287.91 1560.32,280.25 1581.19,273.25 1592,323.58 1655.5,352.16 
				1655.64,352.79 1655.65,352.79 1656.07,354.6 			"/>
			<text transform="matrix(1 0 0 1 1463.6001 424.0629)" class="st1 st2 st3">SİV</text>
		</g>
		<g id="il-59">
			<polygon class="st5" points="319.5,113.01 312.15,180.09 173.32,260.07 173.95,251.41 175.32,232.51 169,224.51 142.42,236.98 
				137.98,178.48 157.26,166.02 155.65,133.89 162.46,135.62 233.75,153.76 242.51,148.52 255.56,114.57 274.31,106.95 
				285.25,111.01 295.2,106.2 			"/>
			<text transform="matrix(1 0 0 1 217.3037 188.8216)" class="st1 st2 st3">TEK</text>
		</g>
		<g id="il-60">
			<polygon class="st0" points="1515.44,284.46 1512.73,285.33 1508.01,301.93 1409.33,325.16 1390.93,359.19 1322.72,373.37 
				1313.28,341.99 1270.58,346.2 1247.6,329.33 1247.57,329.29 1247.51,329.26 1246.44,328.48 1245.92,328.1 1246.04,327.95 
				1257.59,313.19 1291.93,274.52 1323.65,285.87 1348.68,268.58 1346.75,262.33 1366,258.58 1373.67,231.93 1360.69,222.93 
				1360.41,219.68 1372.78,213.05 1383.74,207.18 1401.88,213.2 1395.21,218.46 1451.13,243.6 1452.5,242.26 1511.33,265.26 
				1514.78,280.58 			"/>
			<text transform="matrix(1 0 0 1 1370.2739 299.6264)" class="st1 st2 st3">TOK</text>
		</g>
		<g id="il-61">
			<polygon class="st0" points="1879.09,269.16 1821.99,271.11 1820.86,270.16 1803,255.26 1797.5,256.51 1796.5,266.76 
				1777.74,247.19 1769.5,262.76 1729.76,243.43 1722,228.01 1714.49,231.76 1705.12,229.85 1707.7,178.63 1859.73,191.4 			"/>
			<text transform="matrix(1 0 0 1 1769.5571 214.6761)" class="st1 st2 st3">TRB</text>
		</g>
		<g id="il-62">
			<polygon class="st4" points="1884.09,438.97 1881.33,442.39 1872.12,453.79 1840.58,465.24 1838.67,468.51 1820.24,471.91 
				1818.38,513.54 1857.41,493.93 1797.51,526.77 1802.44,532 1798.82,548.83 1793.52,549.03 1787.03,561.41 1665.18,553.93 
				1659,546.58 1661.33,539.06 1661.47,538.6 1660.88,537.31 1655.24,525.07 1653.15,525.4 1655.67,523.76 1652.66,505.58 
				1658.21,501.43 1657.8,493.91 1669.68,486.93 1665.99,484.47 1665.21,477.11 1878.65,438.28 			"/>
			<text transform="matrix(1 0 0 1 1722.1313 517.2377)" class="st1 st2 st3">TUN</text>
		</g>
		<g id="il-63">
			<polygon class="st0" points="1847.68,886.52 1795.93,915.45 1675.72,928.01 1566.6,900.91 1564.48,897.29 1566.51,893.01 
				1556.46,863.82 1552.25,865.71 1543.8,858.81 1545.75,856.52 1540.94,836 1545.21,835.97 1560.75,797.51 1566.21,797.47 
				1566.02,796.41 1567.42,796.86 1567.42,796.87 1586.21,802.97 1587.75,795.01 1590.3,797.7 1594.69,797.33 1595.99,793.26 
				1624.74,789.08 1644.32,766.07 1668.71,761.97 1665,756.77 1674.71,751.29 1677.77,753.28 1676.01,744.82 1680.77,744.27 
				1682.51,736.25 1674.29,738.22 1713.28,695.22 1714.82,696.19 1779,736.58 1786.67,728.93 1799.66,767.48 1799.66,767.49 
				1802.68,776.46 1802.69,776.46 1803,777.41 1813.29,807.95 1813.32,807.99 1835.74,874.57 			"/>
			<text transform="matrix(1 0 0 1 1668.2114 839.7108)" class="st1 st2 st3">ŞAN</text>
		</g>
		<g id="il-64">
			<polygon class="st0" points="537.17,567.76 537.16,568.08 537.15,568.94 536.96,579.15 536.93,580.65 518.99,625.19 
				506.25,628.58 506.24,628.58 505.33,628.83 498.58,654.25 433,665.01 421.51,661.6 414.73,659.58 414.41,659.37 412.27,657.89 
				407.74,654.76 405.26,654.2 404.2,599.58 404.19,599.26 410.95,597.97 410.96,597.97 410.76,591.02 410.75,590.78 410.74,590.45 
				423.17,581.26 423.17,581.25 426.02,579.14 426.13,579.06 431.61,575.01 439.17,569.41 439.33,569.29 492.13,571.56 
				495.99,555.01 519.6,553.58 			"/>
			<text transform="matrix(1 0 0 1 447.2295 619.3769)" class="st1 st2 st3">UŞK</text>
		</g>
		<g id="il-65">
			<polygon class="st4" points="2377.57,733.76 2377.88,738.5 2337.82,751.7 2340.2,733.26 2335.24,729.33 2272.88,745.66 
				2258.71,749.37 2258.38,750.48 2206.38,741.76 2201.25,746.78 2199.17,745.5 2179.77,709.2 2165.32,706.45 2167.07,672.56 
				2159.25,664.51 2155.74,627.98 2221.19,549.45 2194.54,527.49 2195.68,526.93 2196.67,517.93 2210.33,509.93 2214.93,492.58 
				2204.58,481.28 2245.67,462.58 2273,479.36 2287.08,466.66 2327.5,469.66 2348.74,550.82 2358.26,556.2 2355,588.52 2360,592.01 
				2359.5,635.02 2381.57,640.95 2371.49,664.95 2373.52,667.51 2351.75,721.5 2357.25,724.01 2362.61,720.32 			"/>
			<text transform="matrix(1 0 0 1 2259.3657 621.1112)" class="st1 st2 st3">VAN</text>
		</g>
		<g id="il-66">
			<polygon class="st0" points="1335.33,415.28 1286.1,474.44 1210.41,532.18 1186.55,523.77 1180.4,518.41 1182.36,502.91 
				1171.03,492.16 1167.58,482.58 1156.99,476.02 1155.93,468.26 1064.12,390.43 1063.5,391.24 1063.48,379.28 1077.51,370.25 
				1080.09,372.51 1201.32,347.83 1206.82,333.29 1203.43,329.25 1223.67,322.4 1224.14,322.83 1228.98,327.28 1245.92,328.1 
				1246.44,328.48 1247.51,329.26 1247.57,329.29 1247.6,329.33 1270.58,346.2 1313.28,341.99 1322.72,373.37 1322.91,374 			"/>
			<text transform="matrix(1 0 0 1 1189.6836 424.0853)" class="st1 st2 st3">YZG</text>
		</g>
		<g id="il-67">
			<polygon class="st0" points="836.06,138.57 828.71,151.46 820,156.2 819.61,167.42 819.61,167.43 816,173.76 818.95,186.75 
				768.94,184.04 766.46,183.9 711.98,180.94 710.24,180.85 729.17,154.97 726.84,151.59 729.71,144.38 725.63,138.39 813.5,91.24 
				828.69,100.07 			"/>
			<text transform="matrix(1 0 0 1 768.1181 144.4876)" class="st1 st2 st3">ZNG</text>
		</g>
		<g id="il-68">
			<polygon class="st0" points="1064.76,691.32 1057.89,703.14 1076.02,702.94 983.66,710.93 962.08,668.51 959.07,662.58 
				988.21,593.25 1047,568.19 1045.75,527.83 1063.51,537.51 1066,548.82 1078.96,543.04 1084.96,545.04 1085.16,545.81 
				1088.75,571.51 1085.15,577.24 1085.24,592.02 1105.24,599.76 1106.75,624.91 1106.92,627.79 1106.92,627.79 1108.25,649.94 
				1088.73,668.51 			"/>
			<text transform="matrix(1 0 0 1 1024.4102 644.3202)" class="st1 st2 st3">AKS</text>
		</g>
		<g id="il-69">
			<polygon class="st6" points="1916.01,327.04 1913.65,327.87 1849.54,350.47 1784.51,368.69 1780.51,365.77 1770.57,358.7 
				1768.75,347.51 1793.19,327.45 1791.25,293.26 1797.84,286.57 1802,282.33 1807,277.26 1817.5,277.77 1821.99,271.11 
				1879.09,269.16 1885.75,307.02 1915.88,320.43 			"/>
			<text transform="matrix(1 0 0 1 1817.5903 314.5717)" class="st1 st2 st3">BAY</text>
		</g>
		<g id="il-70">
			<polygon class="st0" points="1059.31,843.66 1061.03,848.73 1058.59,850.21 957.67,885.83 951.58,903.19 945.33,903.58 
				942.33,897.26 926.99,904.91 942.05,931.48 942.05,931.49 951.75,936.83 957,951.58 944.74,947.33 938.6,961.93 886.41,965.72 
				879.47,982.62 853.6,899.5 861.62,914.33 915.95,884.2 896.32,860.61 899.24,856.69 895.33,850.26 955.4,781.37 962.75,789.53 
				981.92,789.83 1014.15,759 1062.01,818.93 1060.81,829.93 			"/>
			<text transform="matrix(1 0 0 1 950.3701 855.1619)" class="st1 st2 st3">KRM</text>
		</g>
		<g id="il-71">
			<polygon class="st0" points="1077.51,370.25 1063.48,379.28 1063.5,391.24 1063.5,391.33 998.09,475.71 999,479.58 
				968.67,425.58 982.07,372.25 1013,355.26 1007.67,337.52 1020.1,307.58 1052.35,317.24 1075.68,289.16 1054.76,314.46 
				1080.09,372.51 			"/>
			<text transform="matrix(1 0 0 1 999.6933 397.1869)" class="st1 st2 st3">KRK</text>
		</g>
		<g id="il-72">
			<polygon class="st4" points="2045.62,760.64 1966,782.93 1949.44,744.37 1948.68,745.35 1950.6,738.24 1945.32,722.91 
				1982.25,621.18 1996.33,617.85 1989.33,605.43 1995.87,610.79 1995.98,610.76 2007.83,607.08 2008.52,607.6 2009.91,607.25 
				2022.5,618 2014,689.93 2005.33,689.91 1992.67,707.93 2031.67,731.58 2028.98,748.26 2045.28,751.65 			"/>
			<text transform="matrix(1 0 0 1 1963.7993 742.1874)" class="st1 st2 st3">BAT</text>
		</g>
		<g id="il-73">
			<polygon class="st4" points="2258.38,750.48 2238.48,816.75 2231.25,818.77 2212,808.01 2192.99,817.96 2167.82,807.5 
				2114.54,852.76 2112.25,834.58 2092.26,820.82 2028.34,852.29 2031.35,838.93 2017,831.93 2023.98,799.26 2047.41,797 
				2050.1,787.5 2048.65,784.58 2054.49,773.35 2144.44,745.32 2178.75,760.51 2199.17,745.5 2201.25,746.78 2206.38,741.76 			"/>
			<text transform="matrix(1 0 0 1 2127.2114 796.3963)" class="st1 st2 st3">ŞRK</text>
		</g>
		<g id="il-74">
			<polygon class="st0" points="907.76,96.3 851.74,131.77 836.73,137.14 828.69,100.07 813.5,91.24 840.5,67.59 845.01,68.59 
				851,63.09 853.79,65.47 882.01,48.21 886.68,50.43 888.59,48.93 			"/>
			<text transform="matrix(1 0 0 1 844.9199 98.6029)" class="st1 st2 st3">BRT</text>
		</g>
		<g id="il-75">
			<polygon class="st5" points="2253.82,167.27 2251.84,176.42 2232.01,179.02 2227.94,193.28 2184.57,208.25 2177.57,243.01 
				2134.69,246.27 2114.27,214.69 2114.27,214.68 2114.19,214.56 2108.74,196.31 2108.13,194.28 2107.69,192.8 2107.69,192.79 
				2141.47,152.46 2127.46,117.69 2131.72,115.56 2141.87,93.3 2174.03,92.26 2168.62,103.59 2173.84,110.56 2181.71,106.25 
				2220.55,140.31 2211.98,147.76 2219.5,147.82 2226.26,161.27 2241.57,156 			"/>
			<text transform="matrix(1 0 0 1 2152.2349 181.8001)" class="st1 st2 st3">ARD</text>
		</g>
		<g id="il-76">
			<polygon class="st4" points="2424.2,421.32 2276.73,393.53 2275.75,391.58 2261.33,390.26 2257.34,396.94 2243.65,393.26 
				2245.02,377.28 2237.73,365.19 2224.53,360.53 2242.26,349.26 2243.41,341.33 2282.18,337.02 2319.68,352.16 2361.27,355.7 			
				"/>
			<text transform="matrix(1 0 0 1 2279.2153 378.5209)" class="st1 st2 st3">IĞD</text>
		</g>
		<g id="il-77">
			<polygon class="st0" points="477.76,240.75 477.61,244.62 477.2,255.12 476.82,264.73 476.82,264.77 467.19,264.93 
				466.97,264.93 424.67,264.77 424.66,264.77 420.75,264.75 412.99,260.62 407.51,263.58 400.37,259.78 405.62,250.33 
				403.72,243.61 			"/>
			<text transform="matrix(1 0 0 1 429.3994 260.6175)" class="st1 st2 st3">YAL</text>
		</g>
		<g id="il-78">
			<polygon class="st0" points="949.64,180.76 922.67,196 904.33,192.59 872.45,221.04 839.4,200.73 839.01,192.17 818.95,186.75 
				816,173.76 819.61,167.43 819.61,167.42 820,156.2 828.71,151.46 836.06,138.57 836.73,137.14 851.74,131.77 907.76,96.3 
				920.74,100.2 934.26,121.76 920.74,163.26 936.96,173.08 936.97,173.08 			"/>
			<text transform="matrix(1 0 0 1 860.9042 166.4173)" class="st1 st2 st3">KRB</text>
		</g>
		<g id="il-79">
			<polygon class="st0" points="1508.17,924.23 1496.26,934.81 1448.82,932.25 1444.25,937.27 1438.73,933.07 1440.26,925.51 
				1393.46,902.53 1427.33,868.91 1440.01,877.93 1441.33,885.58 1483.25,918.33 1494.48,911.16 			"/>
			<text transform="matrix(1 0 0 1 1417.3384 911.5994)" class="st1 st2 st3">KLS</text>
		</g>
		<g id="il-80">
			<polygon class="st0" points="1402.66,824.82 1370.59,885.58 1351.5,878.95 1349.17,876.9 1311.72,868.7 1311.71,868.7 
				1311.76,867.56 1311.77,867.53 1312.65,848.93 1302.75,841.01 1289.07,846.54 1293.02,836.28 1286.66,824.87 1319.45,761.12 
				1323.67,752.93 1347.08,752.64 1347.09,753.73 1342,809.19 1378.33,806.58 1401.15,825.21 			"/>
			<text transform="matrix(1 0 0 1 1322.5903 848.8437)" class="st1 st2 st3">OSM</text>
		</g>
		<g id="il-81">
			<polygon class="st0" points="766.46,183.9 764.16,198.63 727.13,218.72 720.82,239.76 722.5,242.91 721.67,247.39 655.37,252.66 
				653.99,244.25 663,237.29 669.74,178.77 688.08,175.89 710.24,180.85 711.98,180.94 			"/>
			<text transform="matrix(1 0 0 1 683.0322 209.8792)" class="st1 st2 st3">DÜZ</text>
		</g>
	</g>
	<g id="adalar">
		<g>
			<polygon class="st7" points="134.91,612.12 133.38,610 131.37,611.41 130.63,620.14 135.94,626.15 138.63,623 			"/>
			<polygon class="st7" points="411.75,927.13 400.64,937.25 402.69,943.24 414.57,929.12 			"/>
			<polygon class="st7" points="236.24,270.51 230.66,279.24 233.09,281.16 239.15,276.73 			"/>
			<polygon class="st7" points="259.33,250.43 250.32,247.03 241.78,250.08 239.7,248.33 236.5,253.5 237.78,255.24 236.59,258.41 
				246.58,264.84 264.42,254.82 			"/>
			<polygon class="st7" points="246.87,274.33 243.34,273.41 244.09,284.16 253,288.01 254.33,287.6 255.17,282.83 251.83,280.41 
				253.17,278.58 			"/>
			<polygon class="st7" points="437.4,211.51 435.26,209.88 432.88,211.35 431.99,214.39 435,214.38 435.75,217.63 439.43,218.53 
				441.29,213.35 			"/>
			<polygon class="st7" points="45,385.76 38.5,388.29 50.38,398.89 53.73,396.97 55.26,390.87 			"/>
			<polygon class="st7" points="33.4,319.48 1.63,337.36 2.22,341.66 7.23,342.98 9.37,345.88 14.76,346.88 17.78,344.5 
				20.16,344.79 21.25,346.39 42.28,340.38 45.88,334.37 43.53,333.53 41,336.76 40.12,324.64 			"/>
			<polygon class="st7" points="362.83,264.33 361.17,272.34 364.77,275.32 366.15,273.11 365,269.84 367.92,266.83 			"/>
			<polygon class="st7" points="122.52,463.58 117.77,465.62 117.86,469.43 120.25,469.28 122.59,472.51 121.94,473.36 
				126.92,477.58 130.01,475.26 128.38,465.87 			"/>
		</g>
	</g>
</g>
</svg>
